<svg width="84" height="15" viewBox="0 0 84 15" fill="none" xmlns="http://www.w3.org/2000/svg">
<path fill-rule="evenodd" clip-rule="evenodd" d="M8.06094 0.985756L10.0163 5.14125L14.3873 5.80778C14.5005 5.82537 14.5944 5.90845 14.6296 6.02222C14.6648 6.136 14.6354 6.26083 14.5536 6.34442L11.3913 9.57831L12.1379 14.1456C12.1575 14.2633 12.1114 14.3825 12.019 14.4529C11.9265 14.5233 11.8038 14.5326 11.7026 14.477L7.79279 12.321L3.88296 14.4776C3.78182 14.5335 3.65907 14.5243 3.56657 14.4539C3.47406 14.3836 3.42794 14.2643 3.44768 14.1465L4.19431 9.57831L1.03111 6.34442C0.949294 6.26083 0.919844 6.136 0.955091 6.02222C0.990338 5.90845 1.0842 5.82537 1.19735 5.80778L5.56839 5.14125L7.52465 0.985756C7.57443 0.878306 7.67859 0.810059 7.79279 0.810059C7.907 0.810059 8.01116 0.878306 8.06094 0.985756Z" fill="#F59E0B"/>
<path fill-rule="evenodd" clip-rule="evenodd" d="M25.1908 0.985756L27.1462 5.14125L31.5172 5.80778C31.6304 5.82537 31.7242 5.90845 31.7595 6.02222C31.7947 6.136 31.7653 6.26083 31.6835 6.34442L28.5212 9.57831L29.2678 14.1456C29.2874 14.2633 29.2413 14.3825 29.1488 14.4529C29.0564 14.5233 28.9337 14.5326 28.8325 14.477L24.9227 12.321L21.0128 14.4776C20.9117 14.5335 20.789 14.5243 20.6964 14.4539C20.6039 14.3836 20.5578 14.2643 20.5776 14.1465L21.3242 9.57831L18.161 6.34442C18.0792 6.26083 18.0497 6.136 18.085 6.02222C18.1202 5.90845 18.2141 5.82537 18.3272 5.80778L22.6983 5.14125L24.6545 0.985756C24.7043 0.878306 24.8085 0.810059 24.9227 0.810059C25.0369 0.810059 25.141 0.878306 25.1908 0.985756Z" fill="#F59E0B"/>
<path fill-rule="evenodd" clip-rule="evenodd" d="M42.3207 0.985756L44.2761 5.14125L48.6471 5.80778C48.7603 5.82537 48.8541 5.90845 48.8894 6.02222C48.9246 6.136 48.8952 6.26083 48.8134 6.34442L45.651 9.57831L46.3977 14.1456C46.4173 14.2633 46.3712 14.3825 46.2787 14.4529C46.1863 14.5233 46.0636 14.5326 45.9624 14.477L42.0526 12.321L38.1427 14.4776C38.0416 14.5335 37.9188 14.5243 37.8263 14.4539C37.7338 14.3836 37.6877 14.2643 37.7074 14.1465L38.4541 9.57831L35.2909 6.34442C35.2091 6.26083 35.1796 6.136 35.2149 6.02222C35.2501 5.90845 35.344 5.82537 35.4571 5.80778L39.8282 5.14125L41.7844 0.985756C41.8342 0.878306 41.9384 0.810059 42.0526 0.810059C42.1668 0.810059 42.2709 0.878306 42.3207 0.985756Z" fill="#F59E0B"/>
<path fill-rule="evenodd" clip-rule="evenodd" d="M59.4506 0.985756L61.4059 5.14125L65.777 5.80778C65.8901 5.82537 65.984 5.90845 66.0192 6.02222C66.0545 6.136 66.025 6.26083 65.9432 6.34442L62.7809 9.57831L63.5276 14.1456C63.5472 14.2633 63.5011 14.3825 63.4086 14.4529C63.3162 14.5233 63.1935 14.5326 63.0923 14.477L59.1824 12.321L55.2726 14.4776C55.1715 14.5335 55.0487 14.5243 54.9562 14.4539C54.8637 14.3836 54.8176 14.2643 54.8373 14.1465L55.584 9.57831L52.4208 6.34442C52.3389 6.26083 52.3095 6.136 52.3447 6.02222C52.38 5.90845 52.4738 5.82537 52.587 5.80778L56.958 5.14125L58.9143 0.985756C58.9641 0.878306 59.0682 0.810059 59.1824 0.810059C59.2966 0.810059 59.4008 0.878306 59.4506 0.985756Z" fill="#F59E0B"/>
<path fill-rule="evenodd" clip-rule="evenodd" d="M76.5805 0.985756L78.5358 5.14125L82.9069 5.80778C83.02 5.82537 83.1139 5.90845 83.1491 6.02222C83.1844 6.136 83.1549 6.26083 83.0731 6.34442L79.9108 9.57831L80.6574 14.1456C80.6771 14.2633 80.6309 14.3825 80.5385 14.4529C80.446 14.5233 80.3234 14.5326 80.2222 14.477L76.3123 12.321L72.4025 14.4776C72.3014 14.5335 72.1786 14.5243 72.0861 14.4539C71.9936 14.3836 71.9475 14.2643 71.9672 14.1465L72.7138 9.57831L69.5506 6.34442C69.4688 6.26083 69.4394 6.136 69.4746 6.02222C69.5099 5.90845 69.6037 5.82537 69.7169 5.80778L74.0879 5.14125L76.0442 0.985756C76.094 0.878306 76.1981 0.810059 76.3123 0.810059C76.4265 0.810059 76.5307 0.878306 76.5805 0.985756Z" fill="#F59E0B"/>
</svg>
