<svg width="36" height="27" viewBox="0 0 36 27" fill="none" xmlns="http://www.w3.org/2000/svg">
<path fill-rule="evenodd" clip-rule="evenodd" d="M22.4909 26.7504C20.6407 23.1733 19.7156 19.2878 19.7156 15.094C19.7156 10.8385 20.8412 7.32309 23.0923 4.54776C25.3434 1.77243 28.8434 0.384766 33.5922 0.384766V6.21296C31.927 6.21296 30.709 6.583 29.9381 7.32309C29.1671 8.06318 28.7817 9.48168 28.7817 11.5786V12.5037H35.535V26.7504H22.4909ZM3.34172 26.7506C1.49151 23.1735 0.566406 19.2881 0.566406 15.0942C0.566406 10.8387 1.69195 7.32332 3.94305 4.54799C6.19414 1.77267 9.69413 0.384999 14.443 0.384999V6.21319C12.7778 6.21319 11.5598 6.58323 10.7888 7.32332C10.0179 8.06341 9.63246 9.48191 9.63246 11.5788V12.5039H16.3857V26.7506H3.34172Z" fill="#DADADA"/>
</svg>
